<svg xmlns="http://www.w3.org/2000/svg" viewBox="0 0 1600 500" width="1600" height="500" role="img" aria-label="Collegia: autonomous, evidence-grounded peer review, a Psynalytics AI system">
  <defs>
    <linearGradient id="sweep" x1="0" y1="0" x2="1" y2="1">
      <stop offset="0" stop-color="#032A30"/>
      <stop offset="0.5" stop-color="#04454F"/>
      <stop offset="1" stop-color="#007A8C"/>
    </linearGradient>
    <radialGradient id="bonelift" cx="0.82" cy="0.18" r="0.6">
      <stop offset="0" stop-color="#FEFCF5" stop-opacity="0.16"/>
      <stop offset="1" stop-color="#FEFCF5" stop-opacity="0"/>
    </radialGradient>
    <radialGradient id="tealGlow" cx="0.5" cy="0.5" r="0.5">
      <stop offset="0" stop-color="#33B4C6" stop-opacity="0.55"/>
      <stop offset="1" stop-color="#33B4C6" stop-opacity="0"/>
    </radialGradient>
    <radialGradient id="limeGlow" cx="0.5" cy="0.5" r="0.5">
      <stop offset="0" stop-color="#A7D12B" stop-opacity="0.5"/>
      <stop offset="1" stop-color="#A7D12B" stop-opacity="0"/>
    </radialGradient>
    <linearGradient id="ink" x1="0" y1="0" x2="1" y2="0">
      <stop offset="0" stop-color="#FFFFFF"/>
      <stop offset="1" stop-color="#CDEAEF"/>
    </linearGradient>
  </defs>

  <rect width="1600" height="500" fill="url(#sweep)"/>
  <rect width="1600" height="500" fill="url(#bonelift)"/>

  <g fill="#FEFCF5" opacity="0.10">
    <circle cx="150" cy="70" r="2"/>
    <circle cx="360" cy="430" r="2"/>
    <circle cx="520" cy="120" r="1.6"/>
    <circle cx="700" cy="360" r="2"/>
    <circle cx="820" cy="80" r="1.6"/>
    <circle cx="60" cy="300" r="1.6"/>
    <circle cx="470" cy="250" r="1.4"/>
    <circle cx="900" cy="440" r="1.6"/>
    <circle cx="1500" cy="70" r="2"/>
    <circle cx="1550" cy="420" r="1.6"/>
    <circle cx="760" cy="220" r="1.4"/>
    <circle cx="250" cy="200" r="1.4"/>
  </g>

  <g stroke="#FEFCF5" fill="none" opacity="0.05">
    <circle cx="1210" cy="270" r="178"/>
    <circle cx="1210" cy="270" r="242"/>
  </g>

  <g stroke="#9FE3EC" stroke-width="1.4" opacity="0.5">
    <line x1="990" y1="120" x2="1210" y2="270"/>
    <line x1="940" y1="250" x2="1210" y2="270"/>
    <line x1="1010" y1="400" x2="1210" y2="270"/>
    <line x1="1150" y1="90" x2="1210" y2="270"/>
    <line x1="1330" y1="120" x2="1210" y2="270"/>
    <line x1="1420" y1="270" x2="1210" y2="270"/>
    <line x1="1360" y1="410" x2="1210" y2="270"/>
    <line x1="1150" y1="450" x2="1210" y2="270"/>
  </g>

  <g>
    <rect x="1130" y="150" width="160" height="240" rx="10" fill="#04353D" opacity="0.92"/>
    <rect x="1130" y="150" width="160" height="240" rx="10" fill="none" stroke="#FEFCF5" stroke-opacity="0.55" stroke-width="1.4"/>
    <rect x="1152" y="182" width="116" height="7" rx="3.5" fill="#FEFCF5" opacity="0.34"/>
    <rect x="1152" y="205" width="96" height="7" rx="3.5" fill="#FEFCF5" opacity="0.34"/>
    <rect x="1152" y="228" width="116" height="7" rx="3.5" fill="#33B4C6" opacity="0.9"/>
    <rect x="1152" y="251" width="80" height="7" rx="3.5" fill="#FEFCF5" opacity="0.34"/>
    <rect x="1152" y="274" width="116" height="7" rx="3.5" fill="#FEFCF5" opacity="0.34"/>
    <rect x="1152" y="297" width="70" height="7" rx="3.5" fill="#A7D12B" opacity="0.85"/>
    <rect x="1152" y="320" width="104" height="7" rx="3.5" fill="#FEFCF5" opacity="0.34"/>
    <rect x="1152" y="343" width="90" height="7" rx="3.5" fill="#FEFCF5" opacity="0.34"/>
  </g>

  <g>
    <circle cx="990" cy="120" r="26" fill="url(#tealGlow)"/>
    <circle cx="940" cy="250" r="26" fill="url(#tealGlow)"/>
    <circle cx="1010" cy="400" r="26" fill="url(#tealGlow)"/>
    <circle cx="1150" cy="90" r="26" fill="url(#tealGlow)"/>
    <circle cx="1330" cy="120" r="26" fill="url(#limeGlow)"/>
    <circle cx="1420" cy="270" r="26" fill="url(#tealGlow)"/>
    <circle cx="1360" cy="410" r="26" fill="url(#tealGlow)"/>
    <circle cx="1150" cy="450" r="26" fill="url(#limeGlow)"/>

    <circle cx="990" cy="120" r="8" fill="#66C6D4"/>
    <circle cx="940" cy="250" r="8" fill="#66C6D4"/>
    <circle cx="1010" cy="400" r="8" fill="#66C6D4"/>
    <circle cx="1150" cy="90" r="8" fill="#66C6D4"/>
    <circle cx="1330" cy="120" r="8" fill="#A7D12B"/>
    <circle cx="1420" cy="270" r="8" fill="#66C6D4"/>
    <circle cx="1360" cy="410" r="8" fill="#66C6D4"/>
    <circle cx="1150" cy="450" r="8" fill="#A7D12B"/>
  </g>

  <g font-family="'Spline Sans Mono', 'DejaVu Sans Mono', monospace">
    <rect x="96" y="128" width="30" height="3" fill="#A7D12B"/>
    <text x="138" y="140" font-size="19" letter-spacing="3" fill="#FEFCF5" fill-opacity="0.72">A Psynalytics AI system</text>
  </g>

  <text x="92" y="288" font-family="'Inter', 'Segoe UI', system-ui, -apple-system, sans-serif" font-weight="700" font-size="122" letter-spacing="-1" fill="url(#ink)">Collegia</text>

  <g font-family="'Inter', 'Segoe UI', system-ui, -apple-system, sans-serif" fill="#FEFCF5" fill-opacity="0.9" font-size="27" font-weight="400">
    <text x="98" y="344">Autonomous, evidence-grounded peer review</text>
    <text x="98" y="382">for psychological and wellbeing science.</text>
  </g>
</svg>
